<svg xmlns="http://www.w3.org/2000/svg"  viewBox="0 0 48 48" width="48px" height="48px" baseProfile="basic"><path d="M41.78,32.818c-0.19-0.218-0.465-0.343-0.754-0.343H6.967c-0.288,0-0.562,0.125-0.752,0.341s-0.277,0.505-0.239,0.791	l1.036,7.789C7.209,42.88,8.487,44,9.985,44H15.6c0.286,0,0.557-0.122,0.747-0.335c0.189-0.213,0.279-0.498,0.246-0.781L16.257,40	h2.26l0.391,3.124C18.97,43.625,19.396,44,19.9,44h8.15c0.495,0,0.916-0.362,0.989-0.852L29.511,40h2.237l-0.293,2.899	c-0.028,0.281,0.064,0.562,0.253,0.771C31.898,43.88,32.167,44,32.45,44h5.518c1.491,0,2.769-1.114,2.972-2.59l1.078-7.799	C42.057,33.325,41.97,33.036,41.78,32.818z"/><polygon fill="#fff" points="34,5 43,19 40,41 32.646,41 33.15,36 29,36 28.333,41 19.667,41 19,36 14.85,36 15.354,41 8,41 5,19 14,5"/><polygon fill="none" stroke="#000" stroke-linecap="round" stroke-linejoin="round" stroke-miterlimit="10" stroke-width="2" points="34,5 43,19 40,41 32.646,41 33.15,36 29,36 28.333,41 19.667,41 19,36 14.85,36 15.354,41 8,41 5,19 14,5"/><path d="M36.868,18.504l-4-7C32.69,11.192,32.359,11,32,11h-5c-0.321,0-0.623,0.154-0.811,0.416	c-0.188,0.261-0.239,0.596-0.138,0.901L26.613,14h-5.226l0.562-1.684c0.102-0.305,0.05-0.64-0.138-0.901	C21.623,11.154,21.321,11,21,11h-5c-0.359,0-0.69,0.192-0.868,0.504l-4,7c-0.114,0.2-0.156,0.433-0.118,0.661l2,12	C13.094,31.646,13.511,32,14,32h20c0.489,0,0.906-0.354,0.986-0.835l2-12C37.024,18.937,36.982,18.704,36.868,18.504z M19,28	c-0.552,0-1-1.567-1-3.5s0.448-3.5,1-3.5s1,1.567,1,3.5S19.552,28,19,28z M29,28c-0.552,0-1-1.567-1-3.5s0.448-3.5,1-3.5	s1,1.567,1,3.5S29.552,28,29,28z"/></svg>